<?xml version="1.0" encoding="utf-8"?>
<!-- Generator: Adobe Illustrator 15.1.0, SVG Export Plug-In . SVG Version: 6.00 Build 0)  -->
<!DOCTYPE svg PUBLIC "-//W3C//DTD SVG 1.1//EN" "http://www.w3.org/Graphics/SVG/1.1/DTD/svg11.dtd">
<svg version="1.1" id="Layer_1" xmlns="http://www.w3.org/2000/svg" xmlns:xlink="http://www.w3.org/1999/xlink" x="0px" y="0px"
	 width="400px" height="453.543px" viewBox="0 0 400 453.543" enable-background="new 0 0 400 453.543" xml:space="preserve">
<g>
	<path fill="#4A412A" d="M357.805,131.685c5.1-1.672,9.857-4.429,9.857-9.027c0-2.423-1.082-3.426-3.51-3.426
		c-2.842,0-5.771,2.171-7.521,3.925c-2.84,2.84-5.771,6.271-8.104,10.617C350.366,133.691,354.297,132.77,357.805,131.685
		 M362.82,147.231c-3.516,4.598-9.027,8.862-15.969,8.862c-5.271,0-8.357-3.765-8.357-8.61c0-14.965,16.55-30.763,27.583-30.763
		c3.762,0,6.519,1.424,6.519,5.433c0,5.854-5.181,9.031-14.291,11.79c-2.679,0.751-8.271,2.002-11.034,2.592
		c-1.25,2.002-2.927,6.015-2.927,9.188c0,4.265,2.177,6.771,6.022,6.771c4.513,0,8.771-3.509,11.192-6.267
		C362.32,145.476,363.402,146.479,362.82,147.231 M367.168,44.588c0.411,0,0.916-0.252,0.751-0.834l-1.59-11.203
		c-0.165-0.752-0.5-1.003-0.921-1.003c-0.252,0-0.586,0.169-0.834,0.673c-0.504,0.999-1.26,1.837-2.676,1.837
		c-2.508,0-4.854-1.837-10.781-1.837c-7.776,0-18.059,3.339-18.059,14.625c0,11.282,9.026,14.964,16.803,17.805
		c8.188,3.009,14.713,5.263,14.713,13.792c0,9.526-6.686,12.618-13.04,12.618c-7.021,0-15.294-3.344-18.222-14.46
		c-0.254-0.917-0.588-1.173-1.25-1.173c-0.592,0-1.092,0.422-1.092,1.424v14.292c0,0.839,0.5,1.256,1.002,1.256
		c0.334,0,0.752-0.248,1-0.67c0.586-0.834,1.256-1.589,2.85-1.589c3.171,0,6.937,3.848,16.046,3.848
		c8.021,0,21.563-2.511,21.563-18.305c0-6.27-2.591-14.295-17.811-18.559c-10.775-3.01-14.205-7.521-14.205-13.041
		c0-4.763,2.848-9.358,10.613-9.358c3.848,0,10.109,1.086,14.295,9.276C366.58,44.501,366.828,44.588,367.168,44.588
		 M320.941,41.831c-2.174,0-4.688-1.338-4.688-4.852c0-3.76,3.016-4.929,5.271-4.929c3.179,0,5.771,2.258,5.771,6.185
		c0,4.347-3.262,9.531-9.028,9.531c-0.586,0-0.838-0.421-0.838-0.752c0-0.421,0.252-0.673,0.588-0.755
		c3.93-0.751,5.438-3.261,5.521-4.933C323.195,41.583,322.027,41.831,320.941,41.831 M330.973,121.736
		c0,2.427-0.92,5.684-3.009,9.192c-3.931,6.354-7.021,7.608-9.696,7.608c-2.259,0-3.262-1.837-3.262-4.512
		c0-2.341,1.003-5.351,2.762-8.111c2.678-4.26,6.438-7.77,9.779-7.77C329.805,118.145,330.973,119.231,330.973,121.736
		 M312.67,171.388c-9.279,0-12.037-5.35-12.037-8.024c0-2.506,1.004-4.096,3.512-5.854c1.758-1.25,4.348-2.505,6.354-3.257
		c2.258,1.004,5.687,3.01,6.771,4.013c5.017,3.51,6.02,5.516,6.02,7.273C323.282,170.302,316.18,171.388,312.67,171.388
		 M341.838,120.234c1.003,0,1.924-0.5,1.924-2.259c0-1.503-1.42-2.007-2.758-2.007c-1.506,0-3.427,0.417-5.438,1.755
		c-0.498,0.421-1.754,1.003-2.508,0.499c-1.588-1.085-3.011-1.837-6.771-1.837c-3.764,0-9.273,2.258-12.788,7.022
		c-2.506,3.509-3.01,6.019-3.01,8.528c0,2.506,1.007,4.347,1.754,5.346c0.166,0.252,0.247,0.417,0.247,0.673
		c0,0.582-0.746,0.999-2.001,1.338c-2.255,0.751-6.021,2.922-6.021,6.77c0,2.506,2.002,4.929,4.266,6.432
		c0,0-4.598,1.255-8.274,3.261c-2.845,1.589-6.021,4.012-6.021,7.521c0,4.013,3.433,10.534,17.554,10.534
		c8.272,0,13.457-3.005,15.469-5.267c1.498-1.755,1.75-3.757,1.75-5.012c0-4.517-5.013-8.78-10.522-11.785
		c-3.518-2.011-8.693-4.435-8.693-8.029c0-0.917,0.248-1.92,1.251-2.506c0.673-0.503,1.755-0.751,2.928-0.751
		c1.589,0,3.597,0.504,5.017,0.504c4.515,0,10.615-1.507,14.375-9.532c1.002-2.258,1.426-4.516,1.426-6.436
		c0-2.509-0.424-3.095-0.424-4.26c0-1.003,1.005-1.589,2.929-1.589C340.249,119.148,340.249,120.234,341.838,120.234
		 M290.184,131.685c5.186-1.672,9.945-4.429,9.945-9.027c0-2.423-1.168-3.426-3.51-3.426c-2.928,0-5.768,2.171-7.523,3.925
		c-2.924,2.84-5.769,6.271-8.191,10.617C282.827,133.691,286.672,132.77,290.184,131.685 M295.199,147.231
		c-3.514,4.598-9.027,8.862-15.881,8.862c-5.271,0-8.44-3.765-8.44-8.61c0-14.965,16.549-30.763,27.579-30.763
		c3.761,0,6.521,1.424,6.521,5.433c0,5.854-5.101,9.031-14.294,11.79c-2.596,0.751-8.276,2.002-11.035,2.592
		c-1.25,2.002-2.84,6.015-2.84,9.188c0,4.265,2.09,6.771,6.02,6.771c4.514,0,8.775-3.509,11.115-6.267
		C294.695,145.476,295.864,146.479,295.199,147.231 M270.791,105.439c0,0.247-0.083,0.751-0.33,1.251
		c-6.779,14.712-13.462,29.341-19.98,44.05c-0.334,0.755-1.002,2.258-1.002,3.261c0,1.255,0.916,2.34,2.258,2.34
		c0.664,0,1.584-0.247,2.093-0.499c3.679-1.507,7.521-5.519,9.774-8.946c0.504-0.751-0.416-1.42-1.002-0.916
		c-0.92,0.835-3.513,4.344-6.271,5.85c-0.5,0.248-1.003,0.248-0.669-0.751l20.898-46.391c0.33-0.838,0.5-1.338,0.5-1.841
		c0-0.583-0.42-0.838-1.004-0.838c-1.002,0-2.178,0.255-3.685,0.421c-1.25,0.082-3.423,0.251-5.343,0.417
		c-0.506,0-0.758,0.503-0.758,0.837c0,0.5,0.416,0.748,0.916,0.748c1.011,0,2.006,0,3.101,0.256
		C270.708,104.853,270.791,105.104,270.791,105.439 M307.484,73.426c0-5.098,3.761-5.601,7.021-5.853
		c1.253-0.165,1.498-2.171-0.256-2.171h-25.33c-1.75,0-1.75,2.257,0,2.423c5.021,0.334,9.033,1.254,9.033,6.101v9.11
		c0,2.006-1.005,3.426-2.098,4.264c-4.43,3.679-10.026,3.93-13.285,3.93c-16.049,0-23.23-13.873-23.23-27.665
		c0-11.203,5.68-28.839,24.235-28.839c16.636,0,22.646,10.783,24.659,14.878c0.669,1.256,2.255,1.004,2.255,0V36.316
		c0-1.256-1.847-1.508-2.255,0c-0.342,1.502-1.342,2.505-2.596,2.505c-1.004,0-2.176-0.751-2.672-1.09
		c-5.019-3.171-9.787-5.681-19.311-5.681c-15.381,0-34.357,7.688-34.357,31.098c0,23.565,17.805,30.84,33.354,30.84
		c15.301,0,23.32-7.773,24.822-8.776V73.426H307.484z M252.148,105.439c0,0.247-0.082,0.751-0.33,1.251
		c-6.771,14.712-13.457,29.341-19.979,44.05c-0.338,0.755-1.007,2.258-1.007,3.261c0,1.255,0.921,2.34,2.259,2.34
		c0.668,0,1.593-0.247,2.091-0.499c3.678-1.507,7.522-5.519,9.776-8.946c0.504-0.751-0.417-1.42-1.003-0.916
		c-0.916,0.835-3.51,4.344-6.27,5.85c-0.504,0.248-1.009,0.248-0.67-0.751l20.896-46.391c0.335-0.838,0.504-1.338,0.504-1.841
		c0-0.583-0.421-0.838-1.008-0.838c-1.005,0-2.173,0.255-3.675,0.421c-1.256,0.082-3.428,0.251-5.354,0.417
		c-0.5,0-0.752,0.503-0.752,0.837c0,0.5,0.421,0.748,0.921,0.748c1.004,0,2.007,0,3.093,0.256
		C252.066,104.853,252.148,105.104,252.148,105.439 M222.395,117.976c-7.93,0-19.295,18.808-19.295,30.259
		c0,3.009,1.338,5.267,4.521,5.267c7.771,0,19.376-19.224,19.376-29.338C226.992,121.154,226.158,117.976,222.395,117.976
		 M220.723,115.635c8.023,0,9.531,7.022,9.531,13.54c0,10.365-9.531,26.919-21.049,26.919c-7.273,0-10.031-5.854-10.031-11.873
		C199.174,129.761,209.452,115.635,220.723,115.635 M180.449,32.299c-1.755,0-1.755,1.759-0.751,2.01
		c1.923,0.417,5.937,0.752,5.937,6.016c0.082,12.454,0.082,28.755-0.417,42.048c-0.088,4.763-1.512,8.771-5.603,9.274
		c-1.503,0.083-1.503,1.838-0.503,1.838h18.051c1.007,0,1.338-1.585,0.087-1.838c-2.754-0.503-7.273-0.503-7.607-9.274
		c-0.417-8.529-0.665-40.789-0.665-40.789l45.29,50.399h3.76c0,0,0-47.143,0.252-50.738c0.248-4.177,1.677-6.436,6.185-6.77
		c2.267-0.166,1.845-2.176,0.339-2.176H226.41c-2.174,0-1.674,2.01-0.67,2.01c2.008,0.252,8.275,0.999,8.527,7.019
		c0.248,8.78,0.664,36.112,0.664,36.112L194.66,32.299H180.449z M196.667,120.651c0.495,0,0.829-0.252,0.999-0.752l4.018-12.788
		c0.248-0.751-0.086-1.255-0.756-1.255c-0.252,0-0.583,0.081-0.838,0.334c-0.752,0.751-1.669,1.507-2.424,1.507
		c-0.417,0-0.752-0.252-1.168-0.586c-3.592-4.431-9.358-5.103-12.12-5.103c-12.788,0-23.822,8.363-30.341,18.643
		c-3.93,6.101-5.936,12.788-5.936,19.393c0,10.53,7.272,16.466,16.801,16.466c4.264,0,7.521-0.503,13.288-2.926
		c1.259-0.504,2.679-1.09,3.512-1.09c1.421,0,1.507,2.093,1.673,4.016c0,0.752,0.499,0.999,1.003,0.999
		c0.334,0,0.751-0.165,1.004-0.747l5.35-15.298c0.417-1.255-0.083-1.754-0.587-1.754c-0.751,0-1.168,0.334-1.754,1.333
		c-2.428,3.76-4.1,6.188-12.537,10.287c-3.512,1.668-7.608,2.671-10.868,2.671c-7.105,0-9.863-5.433-9.863-12.285
		c0-9.028,4.266-18.473,10.783-26.329c4.182-5.184,10.535-11.034,17.969-11.034c7.109,0,12.376,5.264,11.62,15.048
		C195.413,120.234,195.995,120.651,196.667,120.651 M164.317,83.874V41.327c0-5.263,3.76-6.767,7.773-7.019
		c1.506,0,1.758-2.01-0.248-2.01h-25.077c-1.755,0-2.003,1.924-0.252,2.01c3.765,0.417,8.275,2.254,8.275,7.019v42.547
		c0,4.764-1.754,7.772-7.273,7.772c-2.171,0-1.671,1.838,0,1.838h24.575c1.255,0,1.589-1.838-0.5-1.838
		C166.323,91.646,164.317,88.134,164.317,83.874 M104.973,41.496c0-1.923-0.751-3.765-3.257-4.681
		c-2.094-0.751-4.018-1.004-6.106-1.338c-3.009-0.5-2.423-3.427,0.252-3.427c1.754,0,10.113,0.669,20.058,0.669
		c5.771,0,14.044-0.252,18.056-0.499c2.507-0.17,2.759,2.505,1.004,3.005c-1.754,0.503-10.031,2.506-24.826,16.05
		C94.859,65.319,75.136,86.132,75.136,86.132s44.293,52.822,52.069,59.093c8.025,6.522,13.544,7.021,19.56,7.525
		c1.506,0.082,2.006,3.005,0,3.005h-34.603c0,0-42.881-51.819-49.902-56.587c-1.25-0.751-4.265-1.754-4.513,1.755
		c-0.252,3.261-0.503,30.762,0.248,36.776c0.755,6.019,3.262,14.795,17.557,14.795c1.755,0,2.757,3.348,0.252,3.261
		c-8.446-0.417-14.794-0.417-25.247-0.417c-9.027,0-21.647,0.417-23.401,0.417c-3.006,0-3.006-2.757-0.252-3.005
		c4.012-0.256,13.544-0.755,14.126-16.05c0.669-15.798,0.252-82.333,0-89.603c-0.082-5.016-4.347-11.79-15.377-11.79
		c-1.759,0-1.503-3.009,0.499-3.009H73.29c1.76,0,2.763,2.927-0.248,3.179c-3.009,0.251-14.46,0.587-14.795,15.881
		c-0.416,15.298-0.416,39.033-0.416,40.036c0,1.256,0.499,2.511,2.258,1.256c5.433-3.679,21.562-19.477,33.603-33.016
		c4.759-5.35,8.025-10.031,10.279-14.378C104.469,44.336,104.973,42.999,104.973,41.496"/>
	<path fill="#4A412A" d="M317.514,176.293c-1,0-1.256,1.758,0.086,1.758c1.504,0,4.687,0.417,4.687,5.012l-0.253,37.114
		c0,4.013-1.426,7.356-5.188,7.356c-1.25,0-1.25,1.672-0.246,1.672h15.467c0.994,0,0.994-1.672-0.174-1.672
		c-2.258,0-6.188-1.008-6.27-7.356l-0.335-37.783c0,0,39.621,46.556,39.872,46.812h2.675l0.252-44.641
		c0-4.429,1.92-6.766,6.688-6.766c0.998,0,0.998-1.506,0-1.506h-17.311c-1.007,0-1.007,1.506,0,1.506
		c1.762,0,7.108,0.335,7.188,6.102l0.423,32.513l-34.021-40.12L317.514,176.293L317.514,176.293z M269.707,202.369
		c0-13.54,6.271-23.984,17.804-23.984c10.279,0,18.052,9.945,18.052,23.984c0,17.305-7.021,24.908-18.052,24.908
		C276.725,227.277,269.707,216.916,269.707,202.369 M287.511,229.709c15.464,0,26.576-10.787,26.576-27.34
		c0-14.543-10.782-26.328-26.576-26.328c-15.386,0-26.415,12.037-26.415,26.328C261.096,217.915,271.543,229.709,287.511,229.709
		 M213.38,183.396c0-4.764,2.754-5.012,9.269-5.012c11.281,0,22.649,5.598,22.649,23.485c0,17.387-9.526,24.824-22.149,24.824
		h-2.676c-3.336,0-7.093-0.672-7.093-7.272V183.396z M200.343,176.041c-1.754,0-1.42,2.01-0.417,2.01
		c2.002,0,5.348,1.003,5.348,5.012v37.701c0,4.008-0.918,6.515-5.682,6.515c-1.173,0-1.173,1.931-0.083,1.931h25.149
		c11.029,0,29.334-5.271,29.334-27.083c0-22.065-15.047-26.081-29.59-26.081L200.343,176.041L200.343,176.041z M138.073,176.293
		c-1.003,0-1.256,1.758,0.083,1.758c1.507,0,4.681,0.417,4.681,5.012l-0.252,37.114c0,4.013-1.42,7.356-5.181,7.356
		c-1.256,0-1.256,1.672-0.253,1.672h15.465c1.003,0,1.003-1.672-0.169-1.672c-2.255,0-6.181-1.008-6.268-7.356l-0.334-37.783
		c0,0,39.621,46.556,39.868,46.812h2.68l0.247-44.641c0-4.429,1.924-6.766,6.688-6.766c1.002,0,1.002-1.506,0-1.506h-17.301
		c-1.004,0-1.004,1.506,0,1.506c1.754,0,7.104,0.335,7.187,6.102l0.421,32.513l-34.022-40.12L138.073,176.293L138.073,176.293z
		 M89.927,202.369c0-13.54,6.271-23.984,17.804-23.984c10.283,0,18.053,9.945,18.053,23.984c0,17.305-7.018,24.908-18.053,24.908
		C96.95,227.277,89.927,216.916,89.927,202.369 M107.731,229.709c15.465,0,26.58-10.787,26.58-27.34
		c0-14.543-10.781-26.328-26.58-26.328c-15.38,0-26.415,12.037-26.415,26.328C81.316,217.915,91.768,229.709,107.731,229.709
		 M367.495,258.209H30.749v7.271h336.747L367.495,258.209L367.495,258.209z M367.495,248.008H30.749v3.174h336.747L367.495,248.008
		L367.495,248.008z M29.998,176.375h21.564c1.085,0,1.42,1.759,0.086,1.759c-2.093,0-6.356,1.003-6.356,5.511v37.449
		c0,4.264,2.089,5.768,11.369,5.768c8.944,0,17.387-1.086,21.564-12.95c0.334-1.006,1.923-0.925,1.671,0.586l-2.757,14.791h-46.39
		c-1.589,0-1.255-1.92-0.251-1.92c3.009,0,6.687-1.429,6.687-6.854v-35.86c0-4.596-2.671-6.519-7.187-6.519
		C28.83,178.134,28.743,176.375,29.998,176.375"/>
</g>
<g>
	<path fill="#4A412A" d="M43.946,405.585c0-2.303-0.045-4.237-0.137-5.812c-0.087-1.569-0.26-2.828-0.516-3.771
		s-0.628-1.613-1.123-2.02c-0.492-0.403-1.143-0.605-1.953-0.605h-1.659v22.396h1.75c0.628,0,1.168-0.119,1.615-0.357
		c0.449-0.239,0.825-0.729,1.122-1.462c0.301-0.729,0.524-1.769,0.677-3.097C43.867,409.531,43.946,407.773,43.946,405.585
		 M51.575,406.395c0,2.275-0.157,4.364-0.472,6.267c-0.313,1.899-0.85,3.546-1.613,4.938c-0.765,1.396-1.783,2.479-3.056,3.253
		c-1.271,0.778-2.864,1.168-4.779,1.168H31.108v-34.474h11.088c1.585,0,2.96,0.451,4.128,1.352c1.168,0.896,2.138,2.168,2.918,3.813
		c0.775,1.646,1.361,3.627,1.75,5.947C51.379,400.971,51.575,403.555,51.575,406.395"/>
	<path fill="#4A412A" d="M54.716,396.251h7.093v25.763h-7.093V396.251z M54.716,387.545h7.093v6.464h-7.093V387.545z"/>
	<g>
		<path fill="#4A412A" d="M76.261,403.748c0-0.958-0.053-1.729-0.155-2.312c-0.107-0.586-0.256-1.039-0.45-1.367
			c-0.199-0.33-0.442-0.547-0.743-0.647c-0.298-0.104-0.64-0.16-1.033-0.16c-0.387,0-0.729,0.056-1.03,0.16
			c-0.299,0.104-0.546,0.317-0.739,0.647c-0.198,0.328-0.339,0.781-0.431,1.367c-0.086,0.582-0.132,1.354-0.132,2.312
			c0,0.957,0.046,1.729,0.132,2.312c0.092,0.582,0.232,1.041,0.431,1.365c0.193,0.33,0.44,0.551,0.739,0.651
			c0.301,0.104,0.644,0.155,1.03,0.155c0.394,0,0.735-0.053,1.033-0.155c0.301-0.104,0.544-0.321,0.743-0.651
			c0.194-0.324,0.343-0.783,0.45-1.365C76.208,405.479,76.261,404.705,76.261,403.748 M77.966,423.811
			c0-0.688-0.301-1.23-0.899-1.64c-0.599-0.396-1.644-0.604-3.142-0.604h-3.141c-0.33,0.271-0.62,0.612-0.876,1.032
			c-0.256,0.418-0.383,0.854-0.383,1.306c0,0.771,0.396,1.396,1.191,1.856c0.793,0.463,1.788,0.697,2.985,0.697
			c0.925,0,1.676-0.055,2.241-0.16c0.569-0.104,1.004-0.27,1.305-0.49c0.297-0.229,0.491-0.505,0.582-0.83
			C77.921,424.648,77.966,424.261,77.966,423.811 M84.295,422.464c0,2.754-0.83,4.772-2.494,6.062
			c-1.658,1.28-4.392,1.929-8.189,1.929c-1.227,0-2.419-0.091-3.566-0.271c-1.155-0.178-2.171-0.483-3.055-0.92
			c-0.883-0.436-1.593-1.008-2.13-1.728c-0.541-0.718-0.81-1.604-0.81-2.649c0-0.81,0.202-1.453,0.607-1.933
			c0.404-0.474,0.994-0.912,1.771-1.3l1.168-0.582l-0.851-0.495c-0.87-0.509-1.469-1.106-1.795-1.796
			c-0.331-0.688-0.495-1.512-0.495-2.469c0-1.164,0.321-2.143,0.965-2.92c0.641-0.774,1.354-1.422,2.13-1.931l0.81-0.541
			l-0.764-0.674c-0.359-0.297-0.689-0.672-0.986-1.121c-0.301-0.444-0.562-0.935-0.784-1.458c-0.227-0.521-0.405-1.066-0.541-1.639
			c-0.132-0.565-0.202-1.137-0.202-1.705c0-2.812,0.728-4.995,2.179-6.553c1.45-1.56,3.612-2.336,6.486-2.336
			c0.866,0,1.561,0.045,2.084,0.137c0.524,0.091,1.028,0.238,1.507,0.449l0.673-4.668h5.741l-3.944,5.922
			c0.865,0.72,1.604,1.646,2.22,2.783c0.611,1.141,0.921,2.561,0.921,4.266c0,2.455-0.714,4.412-2.134,5.878
			c-1.42,1.471-3.391,2.2-5.903,2.2c-0.537,0-1.127-0.014-1.771-0.047c-0.645-0.027-1.174-0.104-1.595-0.226
			c-0.358,0.238-0.706,0.458-1.03,0.651c-0.331,0.193-0.496,0.533-0.496,1.012c0,0.628,0.238,0.995,0.718,1.102
			c0.479,0.104,0.974,0.153,1.481,0.153l4.265-0.045c2.452-0.026,4.368,0.569,5.747,1.796
			C83.606,418.035,84.295,419.921,84.295,422.464"/>
	</g>
	<path fill="#4A412A" d="M86.313,396.251h7.092v25.763h-7.092V396.251z M86.313,387.545h7.092v6.464h-7.092V387.545z"/>
	<g>
		<path fill="#4A412A" d="M112.167,420.895c-0.211,0.148-0.562,0.313-1.054,0.49c-0.494,0.187-1.057,0.351-1.684,0.496
			c-0.628,0.146-1.297,0.271-1.998,0.358c-0.702,0.092-1.399,0.137-2.089,0.137c-0.925,0-1.763-0.092-2.51-0.272
			c-0.751-0.178-1.388-0.475-1.912-0.896s-0.924-0.976-1.209-1.66c-0.284-0.688-0.425-1.544-0.425-2.56l0.087-15.894H95.56v-4.85
			h3.905l0.177-7.093h6.733v7.093h5.387v4.85h-5.387v13.021c0,0.508,0.099,0.912,0.293,1.215c0.193,0.297,0.45,0.52,0.764,0.672
			c0.314,0.148,0.656,0.248,1.031,0.289c0.376,0.046,0.744,0.07,1.099,0.07c0.569,0,1.058-0.058,1.461-0.156
			c0.405-0.107,0.785-0.232,1.145-0.385L112.167,420.895L112.167,420.895z"/>
		<path fill="#4A412A" d="M126.798,409.223c-0.331,0.187-0.69,0.352-1.078,0.492c-0.388,0.152-0.747,0.271-1.077,0.362
			c-0.628,0.178-1.152,0.372-1.569,0.582c-0.421,0.21-0.742,0.462-0.966,0.765c-0.223,0.297-0.379,0.66-0.471,1.077
			c-0.09,0.417-0.136,0.911-0.136,1.481c0,1.135,0.156,2.01,0.471,2.625c0.312,0.607,0.908,0.92,1.774,0.92
			c0.417,0,0.813-0.062,1.189-0.186c0.375-0.117,0.697-0.369,0.966-0.763c0.269-0.39,0.487-0.968,0.652-1.729
			c0.161-0.765,0.244-1.771,0.244-3.027L126.798,409.223L126.798,409.223z M136.09,421.206c-0.183,0.12-0.442,0.265-0.785,0.426
			c-0.346,0.165-0.735,0.313-1.168,0.449c-0.434,0.137-0.896,0.248-1.392,0.34c-0.494,0.086-0.966,0.132-1.411,0.132
			c-0.9,0-1.618-0.083-2.159-0.244c-0.536-0.164-0.961-0.396-1.275-0.692c-0.317-0.299-0.549-0.652-0.698-1.058
			c-0.148-0.399-0.284-0.846-0.403-1.321l-0.405,0.806c-0.297,0.604-0.884,1.168-1.75,1.709c-0.867,0.537-2.019,0.806-3.456,0.806
			c-1.254,0-2.311-0.224-3.166-0.673c-0.85-0.445-1.548-1.04-2.084-1.771c-0.541-0.734-0.929-1.563-1.168-2.493
			c-0.24-0.926-0.36-1.87-0.36-2.828c0-2.152,0.513-3.871,1.528-5.159c1.015-1.286,2.65-2.153,4.892-2.604l2.695-0.581
			c0.686-0.147,1.238-0.31,1.659-0.474c0.418-0.166,0.748-0.377,0.987-0.629c0.238-0.256,0.403-0.566,0.495-0.941
			c0.087-0.371,0.133-0.829,0.133-1.37c0-1.229-0.24-2.084-0.72-2.58c-0.478-0.49-1.18-0.737-2.108-0.737
			c-0.867,0-1.593,0.247-2.175,0.737c-0.587,0.496-0.876,1.131-0.876,1.907c0,0.447,0.028,0.843,0.091,1.168
			c0.058,0.328,0.148,0.674,0.268,1.029l-5.923,0.14c-0.124-0.513-0.211-0.94-0.272-1.308c-0.058-0.356-0.088-0.853-0.088-1.479
			c0-1.168,0.236-2.154,0.716-2.964c0.482-0.812,1.13-1.478,1.957-1.998c0.82-0.524,1.777-0.903,2.867-1.146
			c1.095-0.236,2.267-0.355,3.526-0.355c1.796,0,3.314,0.142,4.557,0.425c1.239,0.285,2.242,0.683,3.006,1.19
			c0.764,0.511,1.316,1.109,1.658,1.815c0.348,0.7,0.517,1.485,0.517,2.354v14.986c0,0.479,0.166,0.85,0.496,1.104
			c0.33,0.251,0.718,0.38,1.168,0.38c0.211,0,0.417-0.046,0.628-0.133v3.632L136.09,421.206L136.09,421.206z"/>
	</g>
	<rect x="138.693" y="387.545" fill="#4A412A" width="7.092" height="34.473"/>
	<polygon fill="#4A412A" points="173.97,422.016 173.97,406.126 169.437,406.126 169.437,422.016 161.805,422.016 161.805,387.543 
		169.437,387.543 169.437,400.335 173.97,400.335 173.97,387.543 181.603,387.543 181.603,422.016 	"/>
	<g>
		<path fill="#4A412A" d="M197.175,422.016v-4.173c-0.417,1.466-1.123,2.607-2.109,3.438c-0.986,0.819-2.245,1.229-3.769,1.229
			c-0.723,0-1.425-0.118-2.109-0.354c-0.689-0.238-1.297-0.606-1.821-1.104c-0.524-0.49-0.941-1.121-1.254-1.882
			c-0.314-0.769-0.472-1.672-0.472-2.716v-20.199h7.093v18.223c0,0.603,0.124,1.063,0.38,1.395c0.255,0.331,0.681,0.496,1.278,0.496
			c0.839,0,1.504-0.45,1.998-1.35c0.492-0.896,0.739-2.26,0.739-4.088v-14.676h7.092v25.764L197.175,422.016L197.175,422.016z"/>
		<path fill="#4A412A" d="M231.064,422.016v-18.267c0-0.599-0.129-1.063-0.381-1.396c-0.26-0.324-0.688-0.488-1.279-0.488
			c-0.842,0-1.508,0.484-1.998,1.457c-0.495,0.975-0.743,2.3-0.743,3.971v14.727h-7.046v-18.27c0-0.6-0.129-1.064-0.381-1.396
			c-0.256-0.324-0.68-0.488-1.278-0.488c-0.839,0-1.511,0.453-2.022,1.369c-0.508,0.91-0.76,2.268-0.76,4.059v7.318v2.688v2.356
			v1.685v0.673h-7.092V396.25h7.046v4.221c0.422-1.468,1.132-2.617,2.13-3.455c1.004-0.838,2.271-1.261,3.795-1.261
			c1.465,0,2.707,0.39,3.729,1.168c1.016,0.78,1.626,1.962,1.837,3.548c0.417-1.468,1.123-2.617,2.111-3.455
			c0.984-0.838,2.242-1.261,3.771-1.261c0.715,0,1.421,0.12,2.106,0.359c0.688,0.239,1.293,0.604,1.815,1.102
			c0.523,0.491,0.94,1.119,1.261,1.884c0.312,0.768,0.473,1.668,0.473,2.719v20.195L231.064,422.016L231.064,422.016z"/>
		<path fill="#4A412A" d="M253.461,409.223c-0.331,0.187-0.689,0.352-1.078,0.492c-0.388,0.152-0.746,0.271-1.076,0.362
			c-0.629,0.178-1.152,0.372-1.564,0.582c-0.426,0.21-0.742,0.462-0.971,0.765c-0.227,0.297-0.385,0.66-0.476,1.077
			c-0.086,0.417-0.131,0.911-0.131,1.481c0,1.135,0.155,2.01,0.47,2.625c0.314,0.607,0.904,0.92,1.775,0.92
			c0.417,0,0.812-0.062,1.188-0.186c0.373-0.117,0.697-0.369,0.967-0.763c0.271-0.39,0.482-0.968,0.647-1.729
			c0.165-0.765,0.248-1.771,0.248-3.027L253.461,409.223L253.461,409.223z M262.753,421.206c-0.183,0.12-0.442,0.265-0.785,0.426
			c-0.346,0.165-0.733,0.313-1.168,0.449c-0.433,0.137-0.899,0.248-1.391,0.34c-0.495,0.086-0.966,0.132-1.416,0.132
			c-0.896,0-1.614-0.083-2.155-0.244c-0.535-0.164-0.961-0.396-1.279-0.692c-0.312-0.299-0.545-0.652-0.688-1.058
			c-0.147-0.399-0.284-0.846-0.404-1.321l-0.401,0.806c-0.299,0.604-0.887,1.168-1.75,1.709c-0.867,0.537-2.021,0.806-3.455,0.806
			c-1.26,0-2.312-0.224-3.166-0.673c-0.854-0.445-1.547-1.04-2.084-1.771c-0.541-0.734-0.934-1.563-1.168-2.493
			c-0.24-0.926-0.359-1.87-0.359-2.828c0-2.152,0.509-3.871,1.527-5.159c1.016-1.286,2.646-2.153,4.893-2.604l2.689-0.581
			c0.688-0.147,1.242-0.31,1.658-0.474c0.424-0.166,0.754-0.377,0.988-0.629c0.23-0.256,0.405-0.566,0.491-0.941
			c0.091-0.371,0.137-0.829,0.137-1.37c0-1.229-0.235-2.084-0.718-2.58c-0.479-0.49-1.186-0.737-2.109-0.737
			c-0.863,0-1.594,0.247-2.181,0.737c-0.582,0.496-0.874,1.131-0.874,1.907c0,0.447,0.027,0.843,0.09,1.168
			c0.062,0.328,0.153,0.674,0.271,1.029l-5.918,0.14c-0.125-0.513-0.215-0.94-0.272-1.308c-0.062-0.356-0.091-0.853-0.091-1.479
			c0-1.168,0.238-2.154,0.719-2.964c0.479-0.812,1.131-1.478,1.957-1.998c0.816-0.524,1.777-0.903,2.868-1.146
			c1.091-0.236,2.267-0.355,3.524-0.355c1.797,0,3.312,0.142,4.555,0.425c1.242,0.285,2.244,0.683,3.01,1.19
			c0.764,0.511,1.314,1.109,1.658,1.815c0.344,0.7,0.518,1.485,0.518,2.354v14.986c0,0.479,0.164,0.85,0.494,1.104
			c0.326,0.251,0.719,0.38,1.168,0.38c0.207,0,0.418-0.046,0.629-0.133v3.632L262.753,421.206L262.753,421.206z"/>
		<path fill="#4A412A" d="M276.846,422.016v-18.222c0-0.599-0.129-1.062-0.385-1.396c-0.252-0.325-0.677-0.49-1.275-0.49
			c-0.843,0-1.502,0.484-1.998,1.457c-0.494,0.974-0.742,2.299-0.742,3.971v14.68h-7.092v-25.764h7.051v4.175
			c0.416-1.467,1.119-2.606,2.107-3.436c0.987-0.821,2.242-1.234,3.771-1.234c0.719,0,1.42,0.12,2.107,0.359
			c0.687,0.239,1.293,0.604,1.813,1.102c0.521,0.491,0.938,1.119,1.259,1.884c0.312,0.768,0.475,1.668,0.475,2.719v20.195H276.846
			L276.846,422.016z"/>
	</g>
	<path fill="#4A412A" d="M287.664,396.251h7.093v25.763h-7.093V396.251z M287.664,387.545h7.093v6.464h-7.093V387.545z"/>
	<g>
		<path fill="#4A412A" d="M313.518,420.895c-0.211,0.148-0.562,0.313-1.058,0.49c-0.491,0.187-1.054,0.351-1.681,0.496
			c-0.633,0.146-1.297,0.271-1.998,0.358c-0.706,0.092-1.399,0.137-2.09,0.137c-0.93,0-1.764-0.092-2.518-0.272
			c-0.744-0.178-1.383-0.475-1.902-0.896c-0.523-0.421-0.934-0.976-1.213-1.66c-0.281-0.688-0.431-1.544-0.431-2.56l0.093-15.894
			h-3.812v-4.85h3.905l0.178-7.093h6.73v7.093h5.389v4.85h-5.389v13.021c0,0.508,0.096,0.912,0.293,1.215
			c0.191,0.297,0.447,0.52,0.766,0.672c0.312,0.148,0.655,0.248,1.03,0.289c0.37,0.046,0.739,0.07,1.1,0.07
			c0.569,0,1.058-0.058,1.462-0.156c0.404-0.107,0.784-0.232,1.145-0.385V420.895L313.518,420.895z"/>
	</g>
	<path fill="#4A412A" d="M316.568,396.251h7.092v25.763h-7.092V396.251z M316.568,387.545h7.092v6.464h-7.092V387.545z"/>
	<g>
		<path fill="#4A412A" d="M338.604,406.889c-0.059-1.256-0.129-2.287-0.197-3.097c-0.075-0.81-0.188-1.44-0.338-1.907
			c-0.146-0.462-0.356-0.792-0.627-0.982c-0.271-0.194-0.631-0.293-1.078-0.293c-0.957,0-1.604,0.529-1.934,1.594
			c-0.326,1.062-0.52,2.625-0.582,4.688L338.604,406.889L338.604,406.889z M333.848,410.523c0,1.438,0.062,2.578,0.184,3.437
			c0.113,0.854,0.3,1.502,0.537,1.951c0.238,0.45,0.556,0.747,0.938,0.896c0.388,0.153,0.839,0.229,1.347,0.229
			c0.963,0,1.621-0.313,2.004-0.944c0.369-0.628,0.519-1.494,0.42-2.602l-0.086-1.032l6.148,0.179
			c0.088,0.479,0.133,1.122,0.133,1.934c0,1.104-0.146,2.146-0.449,3.115c-0.299,0.978-0.781,1.819-1.457,2.539
			c-0.674,0.714-1.549,1.282-2.625,1.705c-1.078,0.415-2.404,0.627-3.996,0.627c-1.555,0-2.959-0.174-4.221-0.518
			c-1.254-0.344-2.332-1.003-3.229-1.979c-0.896-0.971-1.585-2.305-2.062-3.989c-0.479-1.69-0.72-3.887-0.72-6.575
			c0-4.966,0.833-8.55,2.493-10.749c1.658-2.199,4.045-3.299,7.157-3.299c2.812,0,4.903,0.889,6.278,2.666
			c1.381,1.781,2.229,4.308,2.562,7.563c0.091,0.896,0.156,1.75,0.201,2.562c0.046,0.807,0.083,1.6,0.107,2.379L333.848,410.523z"/>
		<path fill="#4A412A" d="M366.614,414.25c0,1.346-0.175,2.539-0.519,3.57c-0.35,1.029-0.902,1.891-1.688,2.58
			c-0.778,0.686-1.787,1.205-3.028,1.548c-1.241,0.344-2.771,0.517-4.6,0.517c-3.179,0-5.468-0.553-6.869-1.66
			c-1.408-1.105-2.106-2.724-2.106-4.85c0-0.566,0.051-1.123,0.153-1.66c0.104-0.536,0.229-1.048,0.388-1.527l5.43,0.359
			c-0.119,0.568-0.18,1.123-0.18,1.664c0,0.958,0.207,1.688,0.627,2.199c0.418,0.509,1.104,0.761,2.062,0.761
			c0.541,0,0.979-0.097,1.323-0.293c0.345-0.19,0.604-0.427,0.784-0.694c0.18-0.268,0.309-0.562,0.387-0.875
			c0.065-0.312,0.106-0.59,0.106-0.83c0-0.688-0.2-1.254-0.604-1.709c-0.404-0.441-1.085-0.879-2.043-1.3l-2.782-1.3
			c-0.566-0.27-1.177-0.6-1.812-0.986c-0.646-0.389-1.242-0.885-1.797-1.479c-0.556-0.604-1.021-1.324-1.396-2.178
			c-0.372-0.854-0.56-1.881-0.56-3.073c0-1.229,0.232-2.312,0.718-3.259c0.479-0.938,1.138-1.73,1.976-2.377
			c0.837-0.646,1.808-1.129,2.896-1.461c1.095-0.326,2.254-0.492,3.479-0.492c1.168,0,2.271,0.13,3.298,0.387
			c1.032,0.252,1.928,0.645,2.675,1.163c0.743,0.521,1.343,1.187,1.771,1.979c0.438,0.793,0.646,1.74,0.646,2.851
			c0,0.479-0.026,0.897-0.092,1.26c-0.06,0.358-0.161,0.72-0.312,1.077l-5.341-0.092c0.086-0.271,0.146-0.531,0.177-0.783
			c0.028-0.256,0.045-0.598,0.045-1.014c0-0.721-0.22-1.266-0.651-1.641c-0.434-0.372-1.021-0.562-1.771-0.562
			c-0.78,0-1.345,0.211-1.705,0.633c-0.358,0.417-0.54,0.971-0.54,1.658c0,0.746,0.256,1.317,0.764,1.728
			c0.51,0.403,1.196,0.802,2.063,1.188l3.454,1.479c0.72,0.33,1.393,0.696,2.021,1.104c0.631,0.396,1.177,0.888,1.643,1.453
			c0.463,0.57,0.83,1.252,1.099,2.047C366.479,412.148,366.614,413.114,366.614,414.25"/>
	</g>
</g>
<g enable-background="new    ">
	<path fill="#4A412A" d="M29.922,356.262c0-3.057,0.106-5.666,0.318-7.829s0.568-4.085,1.069-5.767s1.179-3.015,2.036-4.001
		c0.856-0.986,1.914-1.728,3.172-2.224c1.258-0.497,2.774-0.746,4.548-0.746c3.293,0,5.744,0.808,7.352,2.423
		s2.412,3.907,2.412,6.878c0,0.598-0.079,1.506-0.237,2.725c-0.158,1.218-0.315,2.195-0.473,2.932l-6.895,0.046
		c0.128-1.135,0.192-2.376,0.192-3.725c0-1.962-0.152-3.284-0.456-3.967c-0.304-0.682-0.92-1.022-1.847-1.022
		c-0.64,0-1.147,0.191-1.523,0.574c-0.375,0.384-0.676,1.089-0.899,2.115c-0.224,1.027-0.376,2.296-0.456,3.806
		c-0.08,1.51-0.12,3.537-0.12,6.081c0,1.978,0.012,3.583,0.036,4.817c0.024,1.233,0.08,2.329,0.168,3.287
		c0.088,0.959,0.188,1.675,0.3,2.15c0.112,0.475,0.295,0.861,0.551,1.161c0.256,0.299,0.516,0.479,0.78,0.54
		c0.264,0.062,0.636,0.092,1.115,0.092c1.002,0,1.709-0.46,2.122-1.38c0.413-0.919,0.619-2.375,0.619-4.368
		c0-2.422-0.016-3.954-0.046-4.599l6.974,0.092c0.323,2.07,0.485,4.017,0.485,5.841c0,3.628-0.84,6.361-2.52,8.198
		c-1.68,1.838-4.392,2.756-8.138,2.756c-1.498,0-2.794-0.16-3.891-0.481c-1.097-0.322-2.087-0.865-2.972-1.632
		c-0.885-0.766-1.595-1.792-2.132-3.078c-0.538-1.287-0.946-2.896-1.226-4.825S29.922,358.912,29.922,356.262z"/>
	<path fill="#4A412A" d="M54.11,372.346v-36.1h7.413v36.1H54.11z"/>
	<path fill="#4A412A" d="M64.254,364.73c0-2.313,0.541-4.142,1.624-5.484s2.775-2.263,5.078-2.76l2.832-0.629
		c1.414-0.311,2.339-0.698,2.777-1.164c0.438-0.466,0.657-1.281,0.657-2.445c0-1.258-0.246-2.162-0.738-2.713
		c-0.491-0.552-1.236-0.827-2.235-0.827c-0.906,0-1.666,0.264-2.28,0.792c-0.614,0.527-0.921,1.203-0.921,2.025
		c0,0.73,0.122,1.507,0.367,2.329l-6.196,0.14c-0.245-1.164-0.367-2.15-0.367-2.957c0-1.136,0.245-2.128,0.735-2.977
		c0.49-0.849,1.176-1.526,2.057-2.036c0.881-0.509,1.88-0.885,2.998-1.128s2.352-0.365,3.7-0.365c6.862,0,10.293,1.936,10.293,5.807
		v15.929c0,0.48,0.164,0.86,0.494,1.14c0.329,0.279,0.738,0.418,1.228,0.418c0.214,0,0.436-0.045,0.666-0.137v3.809
		c-0.413,0.307-1.13,0.62-2.152,0.941s-1.973,0.482-2.853,0.482c-0.742,0-1.378-0.062-1.911-0.184
		c-0.533-0.123-0.954-0.269-1.262-0.437c-0.309-0.168-0.576-0.428-0.799-0.78c-0.224-0.352-0.382-0.661-0.475-0.93
		c-0.093-0.268-0.209-0.654-0.348-1.158l-0.415,0.849c-0.354,0.704-1.01,1.319-1.97,1.848c-0.96,0.527-2.131,0.792-3.513,0.792
		c-1.25,0-2.345-0.231-3.283-0.692s-1.674-1.092-2.208-1.892s-0.93-1.669-1.189-2.607C64.383,366.791,64.254,365.792,64.254,364.73z
		 M71.667,363.868c0,1.258,0.176,2.201,0.53,2.83s0.96,0.942,1.821,0.942c0.492,0,0.906-0.065,1.244-0.197s0.668-0.396,0.991-0.792
		s0.565-1.017,0.726-1.862c0.162-0.847,0.242-1.914,0.242-3.203v-2.771c-0.722,0.403-1.475,0.706-2.258,0.908
		c-1.321,0.373-2.201,0.846-2.639,1.42C71.885,361.719,71.667,362.626,71.667,363.868z"/>
	<path fill="#4A412A" d="M88.259,365.893c0-1.077,0.184-2.169,0.551-3.276l5.658,0.359c-0.1,0.583-0.15,1.151-0.15,1.705
		c0,2.02,0.872,3.029,2.614,3.029c0.576,0,1.07-0.093,1.482-0.28c0.412-0.187,0.716-0.426,0.914-0.718
		c0.197-0.292,0.337-0.584,0.42-0.876c0.083-0.291,0.124-0.579,0.124-0.863c0-0.673-0.227-1.241-0.68-1.705
		c-0.453-0.464-1.223-0.928-2.31-1.391l-2.702-1.324c-0.566-0.254-1.071-0.509-1.515-0.763c-0.444-0.254-0.953-0.613-1.526-1.077
		c-0.574-0.464-1.048-0.957-1.423-1.481c-0.375-0.523-0.697-1.185-0.964-1.985c-0.268-0.8-0.402-1.664-0.402-2.591
		c0-2.521,0.899-4.504,2.698-5.952c1.798-1.448,4.015-2.172,6.648-2.172c2.662,0,4.818,0.576,6.469,1.729
		c1.65,1.152,2.476,2.865,2.476,5.139c0,0.822-0.146,1.623-0.436,2.4l-5.6-0.089c0.168-0.509,0.252-1.122,0.252-1.841
		c0-0.732-0.236-1.289-0.709-1.671s-1.125-0.572-1.958-0.572c-0.839,0-1.47,0.209-1.89,0.628s-0.63,0.987-0.63,1.705
		c0,0.703,0.251,1.265,0.753,1.684c0.502,0.418,1.313,0.853,2.433,1.301l3.675,1.525c0.841,0.359,1.554,0.729,2.138,1.111
		c0.583,0.382,1.129,0.867,1.638,1.458c0.508,0.591,0.894,1.312,1.156,2.165c0.262,0.854,0.393,1.833,0.393,2.939
		c0,2.965-0.794,5.149-2.382,6.555s-4.255,2.107-8.001,2.107c-3.2,0-5.536-0.576-7.008-1.728
		C88.995,369.925,88.259,368.197,88.259,365.893z"/>
	<path fill="#4A412A" d="M109.303,365.893c0-1.077,0.184-2.169,0.551-3.276l5.658,0.359c-0.1,0.583-0.15,1.151-0.15,1.705
		c0,2.02,0.872,3.029,2.614,3.029c0.576,0,1.07-0.093,1.482-0.28c0.412-0.187,0.716-0.426,0.914-0.718
		c0.197-0.292,0.337-0.584,0.42-0.876c0.083-0.291,0.124-0.579,0.124-0.863c0-0.673-0.227-1.241-0.68-1.705
		c-0.453-0.464-1.223-0.928-2.31-1.391l-2.702-1.324c-0.566-0.254-1.071-0.509-1.515-0.763c-0.444-0.254-0.953-0.613-1.526-1.077
		c-0.574-0.464-1.048-0.957-1.423-1.481c-0.375-0.523-0.697-1.185-0.964-1.985c-0.268-0.8-0.402-1.664-0.402-2.591
		c0-2.521,0.899-4.504,2.698-5.952c1.798-1.448,4.015-2.172,6.648-2.172c2.662,0,4.818,0.576,6.469,1.729
		c1.65,1.152,2.476,2.865,2.476,5.139c0,0.822-0.146,1.623-0.436,2.4l-5.6-0.089c0.168-0.509,0.252-1.122,0.252-1.841
		c0-0.732-0.236-1.289-0.709-1.671s-1.125-0.572-1.958-0.572c-0.839,0-1.47,0.209-1.89,0.628s-0.63,0.987-0.63,1.705
		c0,0.703,0.251,1.265,0.753,1.684c0.502,0.418,1.313,0.853,2.433,1.301l3.675,1.525c0.841,0.359,1.554,0.729,2.138,1.111
		c0.583,0.382,1.129,0.867,1.638,1.458c0.508,0.591,0.894,1.312,1.156,2.165c0.262,0.854,0.393,1.833,0.393,2.939
		c0,2.965-0.794,5.149-2.382,6.555s-4.255,2.107-8.001,2.107c-3.2,0-5.536-0.576-7.008-1.728
		C110.039,369.925,109.303,368.197,109.303,365.893z"/>
	<path fill="#4A412A" d="M131.289,343.017v-6.771h7.413v6.771H131.289z M131.289,372.346v-26.988h7.413v26.988H131.289z"/>
	<path fill="#4A412A" d="M141.432,359.934c0-2.31,0.169-4.349,0.509-6.119c0.339-1.771,0.811-3.236,1.414-4.399
		c0.604-1.162,1.351-2.112,2.241-2.852c0.89-0.739,1.848-1.263,2.874-1.57s2.172-0.462,3.439-0.462c1.348,0,2.535,0.153,3.562,0.46
		c1.026,0.307,1.864,0.72,2.516,1.241s1.179,1.165,1.585,1.932c0.406,0.766,0.689,1.566,0.85,2.401
		c0.161,0.836,0.241,1.759,0.241,2.771c0,0.883-0.046,1.642-0.138,2.276l-6.357,0.186c0.092-0.418,0.138-0.96,0.138-1.626
		c0-2.663-0.83-3.995-2.489-3.995c-0.814,0-1.429,0.248-1.844,0.743c-0.415,0.496-0.707,1.309-0.876,2.439s-0.253,2.803-0.253,5.018
		c0,2.54,0.096,4.434,0.288,5.68c0.192,1.247,0.492,2.095,0.899,2.544c0.407,0.449,1.033,0.673,1.878,0.673
		c1.797,0,2.695-1.812,2.695-5.436c0-0.666-0.069-1.185-0.207-1.557l6.449,0.325c0.214,1.054,0.321,2.277,0.321,3.671
		c0,0.843-0.084,1.651-0.253,2.426s-0.467,1.55-0.896,2.324c-0.429,0.774-0.977,1.444-1.643,2.008
		c-0.667,0.564-1.532,1.02-2.596,1.365c-1.064,0.346-2.278,0.52-3.641,0.52c-1.419,0-2.665-0.122-3.736-0.365
		s-2.06-0.664-2.965-1.264c-0.906-0.601-1.646-1.39-2.219-2.37c-0.574-0.979-1.015-2.217-1.325-3.713
		C141.587,363.712,141.432,361.954,141.432,359.934z"/>
	<path fill="#4A412A" d="M163.05,365.893c0-1.077,0.184-2.169,0.551-3.276l5.658,0.359c-0.1,0.583-0.15,1.151-0.15,1.705
		c0,2.02,0.872,3.029,2.614,3.029c0.576,0,1.07-0.093,1.482-0.28c0.412-0.187,0.716-0.426,0.914-0.718
		c0.197-0.292,0.337-0.584,0.42-0.876c0.083-0.291,0.124-0.579,0.124-0.863c0-0.673-0.227-1.241-0.68-1.705
		c-0.453-0.464-1.223-0.928-2.31-1.391l-2.702-1.324c-0.566-0.254-1.071-0.509-1.515-0.763c-0.444-0.254-0.953-0.613-1.526-1.077
		c-0.574-0.464-1.048-0.957-1.423-1.481c-0.375-0.523-0.697-1.185-0.964-1.985c-0.268-0.8-0.402-1.664-0.402-2.591
		c0-2.521,0.899-4.504,2.698-5.952c1.798-1.448,4.015-2.172,6.648-2.172c2.662,0,4.818,0.576,6.469,1.729
		c1.65,1.152,2.475,2.865,2.475,5.139c0,0.822-0.145,1.623-0.436,2.4l-5.6-0.089c0.168-0.509,0.252-1.122,0.252-1.841
		c0-0.732-0.236-1.289-0.709-1.671s-1.125-0.572-1.958-0.572c-0.839,0-1.47,0.209-1.89,0.628s-0.63,0.987-0.63,1.705
		c0,0.703,0.251,1.265,0.753,1.684c0.502,0.418,1.313,0.853,2.433,1.301l3.675,1.525c0.841,0.359,1.554,0.729,2.137,1.111
		c0.584,0.382,1.131,0.867,1.639,1.458c0.51,0.591,0.895,1.312,1.156,2.165c0.262,0.854,0.393,1.833,0.393,2.939
		c0,2.965-0.793,5.149-2.381,6.555c-1.589,1.405-4.256,2.107-8.002,2.107c-3.2,0-5.536-0.576-7.008-1.728
		C163.786,369.925,163.05,368.197,163.05,365.893z"/>
	<path fill="#4A412A" d="M195.982,362.59c0-2.696,0.57-5.049,1.712-7.06c1.141-2.011,2.904-3.871,5.292-5.582l0.799-0.554
		c-0.779-1.771-1.17-3.806-1.17-6.102c0-2.309,0.746-4.152,2.238-5.53c1.494-1.378,3.336-2.067,5.525-2.067
		c2.086,0,3.814,0.654,5.186,1.96c1.373,1.306,2.059,2.931,2.059,4.875c0,0.894-0.084,1.672-0.252,2.334
		c-0.168,0.663-0.467,1.306-0.896,1.93s-1.041,1.19-1.838,1.699c-0.797,0.508-1.793,0.979-2.986,1.409l2.875,7.303
		c0.432-0.693,0.963-1.833,1.596-3.42c0.646-1.664,1.17-3.366,1.572-5.107h4.428c-0.799,3.328-1.697,6.17-2.695,8.527
		c-0.6,1.371-1.545,3.274-2.834,5.709l0.506,1.502c0.215,0.689,0.508,1.284,0.877,1.785s0.777,0.752,1.223,0.752
		c0.787,0,1.18-0.746,1.18-2.237c0-1.556-0.115-2.865-0.346-3.929h3.996c0.32,1.187,0.48,2.812,0.48,4.877
		c0,1.263-0.123,2.356-0.367,3.28c-0.246,0.925-0.564,1.648-0.957,2.172c-0.391,0.523-0.896,0.939-1.52,1.248
		c-0.621,0.308-1.234,0.508-1.842,0.601c-0.605,0.092-1.324,0.139-2.152,0.139c-1.609,0-2.838-0.218-3.689-0.652
		c-0.85-0.434-1.674-1.23-2.469-2.389c-1.166,1.204-2.281,2.012-3.348,2.424c-1.064,0.411-2.273,0.617-3.621,0.617
		c-1.553,0-2.896-0.285-4.029-0.855c-1.134-0.569-2.024-1.355-2.671-2.356c-0.646-1.001-1.118-2.106-1.415-3.315
		C196.13,365.366,195.982,364.038,195.982,362.59z M203.395,359.562c0,1.094,0.115,2.127,0.346,3.098
		c0.229,0.971,0.623,1.802,1.182,2.495c0.557,0.693,1.227,1.04,2.008,1.04c0.949,0,1.783-0.447,2.502-1.341l-4.246-10.491
		C203.992,355.857,203.395,357.591,203.395,359.562z M209.225,341.999c0,0.539,0.123,1.194,0.369,1.964
		c0.246,0.771,0.508,1.41,0.785,1.918c0.57-0.246,1.098-0.682,1.582-1.305c0.486-0.624,0.729-1.406,0.729-2.347
		c0-1.571-0.586-2.356-1.756-2.356c-0.57,0-0.998,0.149-1.281,0.45C209.367,340.624,209.225,341.183,209.225,341.999z"/>
</g>
</svg>
